<?xml version="1.0" encoding="utf-8"?>
<!-- Generator: Adobe Illustrator 21.0.2, SVG Export Plug-In . SVG Version: 6.00 Build 0)  -->
<svg version="1.1" id="Layer_1" xmlns="http://www.w3.org/2000/svg" xmlns:xlink="http://www.w3.org/1999/xlink" x="0px" y="0px"
	 viewBox="0 0 369.3 77" style="enable-background:new 0 0 369.3 77;" xml:space="preserve">
<style type="text/css">
	.st0{fill:#FFFFFF;}
</style>
<g>
	<path class="st0" d="M65.9,6.3v6.3c-9.1-4.8-18-7.3-26.8-7.3c-9.3,0-17.1,3.2-23.4,9.5S6.3,29.2,6.3,38.7c0,9.6,3.2,17.5,9.5,23.7
		s14.4,9.3,24.1,9.3c8.2,0,17.1-2.6,26.7-7.7v6c-8.9,4.7-17.8,7-26.6,7c-11.4,0-21-3.7-28.6-11S0,49.6,0,38.7
		c0-11,3.9-20.2,11.7-27.6S28.7,0,39.5,0C47.9,0,56.7,2.1,65.9,6.3z"/>
	<path class="st0" d="M139.6,1v75.1h-5.9V40.5H83.7v35.6h-5.8V1h5.8v34.7h50.1V1H139.6z"/>
	<path class="st0" d="M147.3,36.7l75.6-34.7V8l-26,11.9v36.7l26,11.8v6.1l-75.6-34.7V36.7z M192.1,22.1l-35.4,16.2l35.4,16.1V22.1z"
		/>
	<path class="st0" d="M298.1,1v75.1h-4.8l-57.1-65.6v65.6h-5.8V1h4.9l57,65.6V1H298.1z"/>
	<path class="st0" d="M369.3,1v4.8h-28.2v70.3h-5.9V5.8h-28.2V1H369.3z"/>
</g>
</svg>
